# xmcd
#
# Track frame offsets: 
#        150
#        14842
#        41177
#        54417
#        66060
#        76705
#        92222
#        108707
#        120257
#        138267
#        147555
#        154027
#        167750
#        180227
#        197332
#        209655
#        221810
#        247440
#
# Disc length: 3471 seconds
#
# Revision: 0
# Processed by: cddbd v1.4PL0 Copyright (c) Steve Scherf et al.
# Submitted via: ExactAudioCopy v0.95a1
#
DISCID=0b0d8d12
DTITLE=Various Artist - Rumble and Scratch Capitol Blues Collection Sampler
DYEAR=1995
DGENRE=Blues
TTITLE0=Muddy Waters - Rock Me
TTITLE1=Brownie McGhee, Lightin' Hopkins, Big Joe Williams, Sonny Terr
TTITLE1=y - Wimmin From Coast To Coast
TTITLE2=T-Bone Walker - I'm Gonna Find My Baby
TTITLE3=Lil' Son Jackson - Ticket Agent Blues
TTITLE4=Memphis Slim - How Long (Studio Version)
TTITLE5=Sonny Terry - Telephone Blues
TTITLE6=Son House - Death Letter Blues
TTITLE7=Big Joe Williams - Pearly Mae
TTITLE8=Brownie McGhee and Sonny Terry - Livin' With The Blues
TTITLE9=Roy Brown - Let The Four Winds Blow
TTITLE10=Memphis Slim - All This Piano Boogie
TTITLE11=T-Bone Walker - Call It Stormy Monday But Tuesday Is Just As 
TTITLE11=Bad
TTITLE12=Lil' Son Jackson - Wondering Blues
TTITLE13=Muddy Waters - Walkin' Thru The Park
TTITLE14=Sonny Terry - Whoopin' The Blues
TTITLE15=Big Joe Williams - Everybody's Gonna Miss Me When I'm Gone
TTITLE16=Sonny Terry, Big Joe Williams, Lightin' Hopkins, Brownie McGh
TTITLE16=ee - If You Steal My Chickens You Can't Make 'Em Lay
TTITLE17=T-Bone Walker - Mean Old World
EXTD=
EXTT0=
EXTT1=
EXTT2=
EXTT3=
EXTT4=
EXTT5=
EXTT6=
EXTT7=
EXTT8=
EXTT9=
EXTT10=
EXTT11=
EXTT12=
EXTT13=
EXTT14=
EXTT15=
EXTT16=
EXTT17=
PLAYORDER=
